<?xml version="1.0" encoding="utf-8"?>
<!-- Generator: Adobe Illustrator 27.8.1, SVG Export Plug-In . SVG Version: 6.00 Build 0)  -->
<svg version="1.1" id="Layer_1" xmlns="http://www.w3.org/2000/svg" xmlns:xlink="http://www.w3.org/1999/xlink" x="0px" y="0px"
	 viewBox="0 0 612.9 605.2" style="enable-background:new 0 0 612.9 605.2;" xml:space="preserve">
<g>
	<g>
		<g>
			<path fill="currentColor" d="M581.4,299.4c-2.9-0.3-5.8,0.6-8.1,2.5s-3.7,4.5-4,7.5l-23.2,239.8c-2,20.2-20,35.1-40.2,33.1l-312.3-30.2
				c-20.2-2-35.1-20-33.1-40.2l12.8-132.4l117,11.3c6,0.6,11.5-3.9,12-9.9c0.3-2.9-0.6-5.8-2.5-8.1c-1.9-2.3-4.5-3.7-7.5-4
				l-279.6-27c-2.9-0.3-5.8,0.6-8.1,2.5s-3.7,4.5-4,7.5c-0.3,2.9,0.6,5.8,2.5,8.1c1.9,2.3,4.5,3.7,7.5,4l140.6,13.6l-12.8,132.4
				c-3.1,32.3,20.6,61.2,53,64.3l312.3,30.2c1.9,0.2,3.8,0.3,5.7,0.3c13.6,0,26.7-4.7,37.4-13.5c12.2-10,19.7-24.1,21.2-39.8
				l23.3-240c0.3-2.9-0.6-5.8-2.5-8.1C587,301.1,584.4,299.7,581.4,299.4z"/>
			<path fill="currentColor" d="M559.2,30.9l-62.3-6c-2.9-0.3-5.8,0.6-8.1,2.5c-2.3,1.9-3.7,4.5-4,7.5c-0.6,6.1,3.9,11.5,9.9,12l62.3,6
				c20.2,2,35.1,20,33.1,40.2l-14.6,151.2c-0.3,2.9,0.6,5.8,2.5,8.1s4.5,3.7,7.5,4c0.4,0,0.7,0.1,1.1,0.1c5.6,0,10.4-4.3,11-10
				l14.6-151.2C615.3,62.9,591.6,34.1,559.2,30.9z"/>
			<path fill="currentColor" d="M285.4,430.9l-5.7,59.1c-0.3,2.9,0.6,5.8,2.5,8.1c1.9,2.3,4.5,3.7,7.5,4l131.9,12.7c0.4,0,0.7,0.1,1.1,0.1
				c5.6,0,10.4-4.3,11-10l5.7-59.1c0.6-6.1-3.9-11.5-9.9-12L297.4,421C291.4,420.4,285.9,424.9,285.4,430.9z M416.2,454.7l-3.6,37.1
				l-110-10.6l3.7-37.2L416.2,454.7z"/>
			<path fill="currentColor" d="M495.4,200.8l-1.6,16.3c0,0.3,0.1,0.6,0.3,0.8c0.2,0.2,0.5,0.4,0.8,0.4l35.4,3.4h0.1c0.6,0,1.1-0.4,1.1-1
				l1.6-16.3c0-0.3-0.1-0.6-0.3-0.8s-0.5-0.4-0.8-0.4l-35.4-3.4C496,199.7,495.5,200.2,495.4,200.8z"/>
			<path fill="currentColor" d="M393.8,112.6c0.4,0,0.7,0.1,1.1,0.1c5.6,0,10.4-4.3,11-10l0,0l3.6-37.4c0.3-2.9-0.6-5.8-2.5-8.1
				s-4.5-3.7-7.5-4c-6-0.6-11.5,3.9-12,9.9l-3.6,37.4C383.3,106.7,387.7,112.1,393.8,112.6z"/>
			<path fill="currentColor" d="M326.8,120.2c1.8,3,4.9,5,8.5,5.4l0,0c0.4,0,0.7,0.1,1.1,0.1c2,0,3.9-0.5,5.6-1.5c2.5-1.5,4.3-3.9,5.1-6.7
				c0.7-2.9,0.3-5.8-1.2-8.4l-19.1-32.4c-1.5-2.5-3.9-4.3-6.7-5.1c-2.8-0.7-5.8-0.3-8.4,1.2c-2.5,1.5-4.3,3.9-5.1,6.7
				c-0.7,2.9-0.3,5.8,1.2,8.4L326.8,120.2z"/>
			<path fill="currentColor" d="M301,149.4l-34.5-15c-5.6-2.4-12.1,0.1-14.5,5.7c-1.2,2.7-1.2,5.7-0.2,8.4c1.1,2.7,3.2,4.9,5.9,6.1l34.5,15
				c1.1,0.5,2.2,0.8,3.3,0.9l0,0c0.4,0,0.7,0.1,1.1,0.1c4.4,0,8.3-2.6,10.1-6.6C309.2,158.3,306.6,151.8,301,149.4z"/>
			<path fill="currentColor" d="M470.8,171.3c-1.6,2.5-2.1,5.4-1.5,8.3c1,4.7,4.9,8.1,9.7,8.6c0.3,0,0.7,0.1,1,0.1c0.8,0,1.6-0.1,2.4-0.3
				l36.7-8.1c5.9-1.3,9.7-7.2,8.4-13.2c-0.6-2.9-2.4-5.3-4.8-6.9c-2.5-1.6-5.4-2.1-8.3-1.5l0,0l-36.7,8.1
				C474.9,167.1,472.4,168.8,470.8,171.3z"/>
			<path fill="currentColor" d="M443.2,249.2c13.6-15.4,20.4-35.2,19.2-55.8c-1.3-20.6-10.4-39.4-25.8-53s-35.2-20.5-55.7-19.2
				c-20.6,1.3-39.4,10.4-53,25.8c-16.3,18.4-22.7,42.7-17.8,66.7c1.2,5.9,7.1,9.8,13,8.6l0,0c6-1.2,9.8-7.1,8.6-13
				c-3.5-17.2,1.1-34.5,12.7-47.6c9.7-11,23.2-17.5,37.8-18.4c14.7-0.9,28.8,4,39.8,13.7s17.5,23.2,18.4,37.8
				c0.9,14.7-4,28.8-13.7,39.8c-18.8,21.3-51.4,24.6-74.1,7.6c-4.9-3.6-11.8-2.7-15.4,2.2c-1.8,2.4-2.5,5.3-2.1,8.2s1.9,5.5,4.3,7.3
				c11.2,8.4,24.5,13.5,38.5,14.9c2.5,0.2,5,0.4,7.5,0.4C407.4,275.1,428.6,265.7,443.2,249.2z"/>
			<path fill="currentColor" d="M438.7,126.2c0.2,2.9,1.5,5.6,3.7,7.6c1.8,1.6,3.9,2.5,6.2,2.7c0.4,0,0.7,0.1,1.1,0.1c3.1,0,6.2-1.3,8.3-3.7
				l24.9-28.1c2-2.2,2.9-5,2.8-8c-0.2-2.9-1.5-5.6-3.7-7.6s-5-2.9-8-2.8c-2.9,0.2-5.6,1.5-7.6,3.7l-24.9,28.1
				C439.5,120.5,438.6,123.3,438.7,126.2z"/>
			<path fill="currentColor" d="M67.4,281.8L67.4,281.8l103.4,10c0.4,0,0.7,0.1,1.1,0.1c5.6,0,10.4-4.3,11-10l21.8-226
				c0.9-9.8,5.7-18.6,13.3-24.9s17.2-9.2,27-8.3l201.7,19.5c6.1,0.6,11.5-3.9,12-9.9c0.6-6.1-3.9-11.5-9.9-12L247,0.8
				c-32.3-3.1-61.2,20.6-64.3,53l-20.8,215.1L69.5,260c-6.1-0.6-11.5,3.9-12,9.9C56.9,275.9,61.3,281.3,67.4,281.8z"/>
			<path fill="currentColor" d="M233.7,319.5L88,305.4c-2.9-0.3-5.8,0.6-8.1,2.5c-2.3,1.9-3.7,4.5-4,7.5c-0.3,2.9,0.6,5.8,2.5,8.1
				c1.9,2.3,4.5,3.7,7.5,4l145.7,14.1c0.4,0,0.7,0.1,1.1,0.1c2.5,0,5-0.9,7-2.5c2.3-1.9,3.7-4.5,4-7.5c0.3-2.9-0.6-5.8-2.5-8.1
				C239.2,321.2,236.6,319.8,233.7,319.5z"/>
		</g>
	</g>
</g>
</svg>
