<?xml version="1.0" encoding="utf-8"?>
<!-- Generator: Adobe Illustrator 27.8.1, SVG Export Plug-In . SVG Version: 6.00 Build 0)  -->
<svg version="1.1" id="Laag_1" xmlns="http://www.w3.org/2000/svg" xmlns:xlink="http://www.w3.org/1999/xlink" x="0px" y="0px"
	 viewBox="0 0 360.3 332.6" style="enable-background:new 0 0 360.3 332.6;" xml:space="preserve">
<path fill="currentColor" d="M353.6,217.5c-7.4-6.7-18.9-6.2-26.6,0l-57.8,46.2c-7.1,5.7-15.9,8.8-25,8.8h-74c-5.5,0-10-4.5-10-10
	c0-5.5,4.5-10,10-10h49c9.9,0,19.2-6.8,20.8-16.6c2.1-12.5-7.6-23.4-19.8-23.4H120.1c-16.9,0-33.2,5.8-46.3,16.4l-29.1,23.6H10
	c-5.5,0-10,4.5-10,10v60c0,5.5,4.5,10,10,10h223.2c9.1,0,17.9-3.1,25-8.8l94.6-75.7C362.3,240.6,363,226.1,353.6,217.5z"/>
<path fill="currentColor" d="M308.8,149.5c-10-1.1-19.7-4.9-27.1-10.7c-6.6-5.2-16-5.3-22.5,0c-17.7,14.2-50.1,14.2-68.1-0.7
	c-6.3-5.2-15.4-4.2-21.8,0.8c-17.8,14.1-50,14-67.9-0.8c-6.3-5.2-15.6-4.2-22,0.9c-7.2,5.7-16.8,9.4-27,10.5
	c-3.7,0.4-6.4,3.6-6.4,7.3v15.1c0,4.2,3.5,7.9,7.8,7.5c13.5-1.2,26.2-5.3,37.1-12.1c26.4,16.2,64,15.9,89.8,0
	c26.4,16.2,64,15.9,89.8,0c10.9,6.6,23.8,10.9,37,12.1c4.2,0.4,7.8-3.2,7.8-7.5v-14.8C315.3,153.4,312.6,149.9,308.8,149.5z
	 M308.8,82.2c-10-1.1-19.7-4.9-27.1-10.7c-6.6-5.2-16-5.3-22.5,0c-17.7,14.2-50.1,14.2-68.1-0.7c-6.3-5.2-15.4-4.2-21.8,0.8
	c-17.8,14.1-50,14-67.9-0.8c-6.3-5.2-15.6-4.2-22,0.9c-7.2,5.7-16.8,9.4-27,10.5c-3.7,0.4-6.4,3.7-6.4,7.3v15.1
	c0,4.2,3.5,7.8,7.8,7.5c13.5-1.2,26.2-5.3,37.1-12.1c26.4,16.2,64,15.9,89.8,0c26.4,16.2,64,15.9,89.8,0c10.9,6.6,23.8,10.9,37,12.1
	c4.2,0.4,7.8-3.2,7.8-7.5V89.8C315.3,86.1,312.6,82.6,308.8,82.2L308.8,82.2z M308.8,14.9c-10-1.2-19.7-4.9-27.1-10.7
	c-6.6-5.2-16-5.3-22.5,0c-17.7,14.2-50.1,14.2-68.1-0.7c-6.3-5.2-15.4-4.2-21.8,0.8c-17.8,14.1-50,14-67.9-0.8
	c-6.3-5.2-15.6-4.2-22,0.9c-7.2,5.7-16.8,9.4-27,10.5c-3.7,0.4-6.4,3.6-6.4,7.3v15.1c0,4.2,3.5,7.8,7.8,7.5
	c13.5-1.2,26.2-5.3,37.1-12.1c26.4,16.2,64,15.9,89.8,0c26.4,16.2,64,15.9,89.8,0c10.9,6.6,23.8,10.9,37,12.1
	c4.2,0.4,7.8-3.2,7.8-7.5V22.5C315.3,18.8,312.6,15.3,308.8,14.9L308.8,14.9z"/>
</svg>
