<?xml version="1.0" encoding="utf-8"?>
<!-- Generator: Adobe Illustrator 27.7.0, SVG Export Plug-In . SVG Version: 6.00 Build 0)  -->
<svg version="1.1" id="Laag_1" xmlns="http://www.w3.org/2000/svg" xmlns:xlink="http://www.w3.org/1999/xlink" x="0px" y="0px"
	 viewBox="0 0 360.3 330.6" style="enable-background:new 0 0 360.3 330.6;" xml:space="preserve">
<path fill="currentColor" d="M353.6,215.6c-7.4-6.7-18.9-6.2-26.6,0l-57.8,46.2c-7.1,5.7-15.9,8.8-25,8.8h-74c-5.5,0-10-4.5-10-10
	s4.5-10,10-10h49c9.9,0,19.2-6.8,20.8-16.6c2.1-12.5-7.6-23.4-19.8-23.4H120.1c-16.9,0-33.2,5.8-46.3,16.4l-29.1,23.6H10
	c-5.5,0-10,4.5-10,10v60c0,5.5,4.5,10,10,10h223.2c9.1,0,17.9-3.1,25-8.8l94.6-75.7C362.3,238.6,363,224.1,353.6,215.6z"/>
<path fill="currentColor" d="M150.1,56.4h-40.7l15-45.8c1.4-5.3-2.6-10.6-8.2-10.6H65.5c-4.2,0-7.8,3.1-8.4,7.3L45.8,91.9
	c-0.7,5.1,3.3,9.6,8.4,9.6H96l-16.2,68.6c-1.3,5.4,2.8,10.4,8.2,10.4c3,0,5.8-1.6,7.3-4.2l62-107.1
	C160.6,63.5,156.6,56.4,150.1,56.4z"/>
<g id="ZzGCBf_00000049189341060021335730000007757298693458865835_">
	<g>
		<path fill="currentColor" d="M250,2.9c1.4,0,2.9,0,4.4,0c4.9,1.6,7.5,5.2,8.6,10c0.1,0.6,0.1,1.3,0.4,1.8c3.7,8.5,6.8,17.3,11.2,25.3
			c5.7,10.3,12.5,20.1,19,30c6,9.1,12.5,17.9,15.7,28.4c1.2,4,1.9,8.2,2.9,12.4c0,3.8,0,7.6,0,11.5c-0.2,1.3-0.3,2.6-0.6,3.9
			c-1.8,7.8-4,15.3-8.3,22.2c-7.4,11.9-17.4,20.6-30.6,25.2c-4.7,1.7-9.7,2.6-14.6,3.8c-4,0-8,0-12,0c-1.1-0.2-2.2-0.3-3.3-0.6
			c-14.2-2.8-26.4-9.1-35.9-20.3c-6-7.1-10.4-15-12.6-23.9c-0.9-3.6-1.4-7.3-2.2-10.9c0-3.5,0-6.9,0-10.4c0.2-0.4,0.4-0.8,0.5-1.2
			c0.4-7.9,3.2-15.2,6.8-22.1c3.2-6,7.4-11.6,11.1-17.4c5.9-9.1,11.8-18.1,17.5-27.3c5.6-8.9,9.5-18.6,12.6-28.6
			C242.3,9.8,244,4.7,250,2.9z M250.7,156.4c1.9-0.9,4.3-1.4,5.5-2.9c1-1.2,1.2-3.8,0.7-5.4c-0.7-2.4-3.1-3.1-5.6-3.2
			c-14.8-0.4-26.1-12.4-26.6-26.6c-0.1-3.7-2.1-6-5.3-6.1c-3.3-0.1-5.6,2.4-5.5,6.2c0.2,9.5,3.4,17.8,9.8,24.8
			C231,150.9,239.9,155,250.7,156.4z"/>
		<path fill="currentColor" d="M250.7,156.4c-10.9-1.3-19.7-5.5-26.9-13.2c-6.5-7-9.6-15.3-9.8-24.8c-0.1-3.8,2.2-6.3,5.5-6.2
			c3.3,0.1,5.2,2.4,5.3,6.1c0.5,14.3,11.8,26.3,26.6,26.6c2.6,0.1,4.9,0.8,5.6,3.2c0.5,1.6,0.3,4.2-0.7,5.4
			C255,154.9,252.6,155.4,250.7,156.4z"/>
	</g>
</g>
</svg>
