<?xml version="1.0" encoding="utf-8"?>
<!-- Generator: Adobe Illustrator 27.7.0, SVG Export Plug-In . SVG Version: 6.00 Build 0)  -->
<svg version="1.1" id="Laag_1" xmlns="http://www.w3.org/2000/svg" xmlns:xlink="http://www.w3.org/1999/xlink" x="0px" y="0px"
	 viewBox="0 0 360.3 330.6" style="enable-background:new 0 0 360.3 330.6;" xml:space="preserve" fill="none">

<path fill="currentColor" d="M353.6,215.6c-7.4-6.7-18.9-6.2-26.6,0l-57.8,46.2c-7.1,5.7-15.9,8.8-25,8.8h-74c-5.5,0-10-4.5-10-10
	c0-5.5,4.5-10,10-10h49c9.9,0,19.2-6.8,20.8-16.6c2.1-12.5-7.6-23.4-19.8-23.4H120.1c-16.9,0-33.2,5.8-46.3,16.4l-29.1,23.6H10
	c-5.5,0-10,4.5-10,10v60c0,5.5,4.5,10,10,10h223.2c9.1,0,17.9-3.1,25-8.8l94.6-75.7C362.3,238.6,363,224.1,353.6,215.6z"/>
<path fill="currentColor" d="M228.1,56.4h-40.7l15-45.8c1.4-5.3-2.6-10.6-8.2-10.6h-50.8c-4.2,0-7.8,3.1-8.4,7.3l-11.3,84.6
	c-0.7,5.1,3.3,9.6,8.4,9.6h41.8l-16.2,68.6c-1.3,5.4,2.8,10.4,8.2,10.4c3,0,5.8-1.6,7.3-4.2l62-107.1
	C238.6,63.5,234.6,56.4,228.1,56.4z"/>
</svg>
