<?xml version="1.0" encoding="utf-8"?>
<!-- Generator: Adobe Illustrator 27.9.0, SVG Export Plug-In . SVG Version: 6.00 Build 0)  -->
<svg version="1.1" id="Layer_1" xmlns="http://www.w3.org/2000/svg" xmlns:xlink="http://www.w3.org/1999/xlink" x="0px" y="0px"
	 viewBox="0 0 612.9 605.2" style="enable-background:new 0 0 612.9 605.2;" xml:space="preserve">
<g>
	<g>
		<g>
			<path fill="currentColor" d="M581.4,299.4c-2.9-0.3-5.8,0.6-8.1,2.5s-3.7,4.5-4,7.5l-23.2,239.8c-2,20.2-20,35.1-40.2,33.1l-312.3-30.2
				c-20.2-2-35.1-20-33.1-40.2l12.8-132.4l117,11.3c6,0.6,11.5-3.9,12-9.9c0.3-2.9-0.6-5.8-2.5-8.1c-1.9-2.3-4.5-3.7-7.5-4
				l-279.6-27c-2.9-0.3-5.8,0.6-8.1,2.5s-3.7,4.5-4,7.5c-0.3,2.9,0.6,5.8,2.5,8.1c1.9,2.3,4.5,3.7,7.5,4l140.6,13.6l-12.8,132.4
				c-3.1,32.3,20.6,61.2,53,64.3l312.3,30.2c1.9,0.2,3.8,0.3,5.7,0.3c13.6,0,26.7-4.7,37.4-13.5c12.2-10,19.7-24.1,21.2-39.8
				l23.3-240c0.3-2.9-0.6-5.8-2.5-8.1C587,301.1,584.4,299.7,581.4,299.4z"/>
			<path fill="currentColor" d="M559.2,30.9l-62.3-6c-2.9-0.3-5.8,0.6-8.1,2.5c-2.3,1.9-3.7,4.5-4,7.5c-0.6,6.1,3.9,11.5,9.9,12l62.3,6
				c20.2,2,35.1,20,33.1,40.2l-14.6,151.2c-0.3,2.9,0.6,5.8,2.5,8.1s4.5,3.7,7.5,4c0.4,0,0.7,0.1,1.1,0.1c5.6,0,10.4-4.3,11-10
				l14.6-151.2C615.3,62.9,591.6,34.1,559.2,30.9z"/>
			<path fill="currentColor" d="M495.4,199.8l-1.6,16.3c0,0.3,0.1,0.6,0.3,0.8c0.2,0.2,0.5,0.4,0.8,0.4l35.4,3.4h0.1c0.6,0,1.1-0.4,1.1-1l1.6-16.3
				c0-0.3-0.1-0.6-0.3-0.8s-0.5-0.4-0.8-0.4l-35.4-3.4C496,198.7,495.5,199.2,495.4,199.8z"/>
			<path fill="currentColor" d="M67.4,281.8L67.4,281.8l103.4,10c0.4,0,0.7,0.1,1.1,0.1c5.6,0,10.4-4.3,11-10l21.8-226c0.9-9.8,5.7-18.6,13.3-24.9
				s17.2-9.2,27-8.3l201.7,19.5c6.1,0.6,11.5-3.9,12-9.9c0.6-6.1-3.9-11.5-9.9-12L247,0.8c-32.3-3.1-61.2,20.6-64.3,53l-20.8,215.1
				L69.5,260c-6.1-0.6-11.5,3.9-12,9.9C56.9,275.9,61.3,281.3,67.4,281.8z"/>
			<path fill="currentColor" d="M233.7,319.5L88,305.4c-2.9-0.3-5.8,0.6-8.1,2.5c-2.3,1.9-3.7,4.5-4,7.5c-0.3,2.9,0.6,5.8,2.5,8.1c1.9,2.3,4.5,3.7,7.5,4
				l145.7,14.1c0.4,0,0.7,0.1,1.1,0.1c2.5,0,5-0.9,7-2.5c2.3-1.9,3.7-4.5,4-7.5c0.3-2.9-0.6-5.8-2.5-8.1
				C239.2,321.2,236.6,319.8,233.7,319.5z"/>
			<path fill="currentColor" d="M498.4,169.1l-1.6,16.3c0,0.3,0.1,0.6,0.3,0.8c0.2,0.2,0.5,0.4,0.8,0.4l35.4,3.4h0.1c0.6,0,1.1-0.4,1.1-1l1.6-16.3
				c0-0.3-0.1-0.6-0.3-0.8s-0.5-0.4-0.8-0.4l-35.4-3.4C499,168,498.5,168.5,498.4,169.1z"/>
			<path fill="currentColor" d="M492.4,230.1l-1.6,16.3c0,0.3,0.1,0.6,0.3,0.8c0.2,0.2,0.5,0.4,0.8,0.4l35.4,3.4h0.1c0.6,0,1.1-0.4,1.1-1l1.6-16.3
				c0-0.3-0.1-0.6-0.3-0.8s-0.5-0.4-0.8-0.4l-35.4-3.4C493,229,492.5,229.5,492.4,230.1z"/>
		</g>
	</g>
</g>
</svg>
