<?xml version="1.0" encoding="UTF-8"?>
<svg id="Layer_1" xmlns="http://www.w3.org/2000/svg" version="1.1" viewBox="0 0 118.4 138.4">
  <!-- Generator: Adobe Illustrator 29.5.1, SVG Export Plug-In . SVG Version: 2.1.0 Build 141)  -->
  <defs>
    <style>
      .st0 {
        fill: #fff;
      }

      .st1 {
        fill: #21409a;
      }
    </style>
  </defs>
  <g>
    <g>
      <path class="st0" d="M59.2,29.1c1.6,0,3.2,0,4.7.2v6.6c-1.5-.1-3.1-.2-4.7-.2s-3.2,0-4.7.2v-6.6c1.5-.1,3.1-.2,4.7-.2Z"/>
      <path class="st1" d="M63.9,37.2s0,0-.1,0c-3-.3-6.2-.3-9.3,0-.3,0-.7,0-1-.3-.3-.2-.4-.6-.4-.9v-6.6c0-.6.5-1.2,1.1-1.2,3.2-.3,6.5-.3,9.7,0,.6,0,1.1.6,1.1,1.2v6.6c0,.3-.1.7-.4.9-.2.2-.5.3-.8.3ZM59.2,34.5c1.2,0,2.3,0,3.5.1v-4.1c-2.3-.2-4.7-.2-7,0v4.1c1.2,0,2.3-.1,3.5-.1Z"/>
    </g>
    <g>
      <path class="st0" d="M91.2,48.2c0,10.4-13.9,18.9-31.3,19.1,15.6-.3,28.1-8.8,28.1-19.3s-6.9-14.5-16.9-17.5c11.8,2.8,20.1,9.7,20.1,17.7Z"/>
      <path class="st1" d="M59.9,68.5c-.7,0-1.2-.5-1.2-1.2,0-.7.5-1.3,1.2-1.3,14.8-.3,26.9-8.3,26.9-18s-6.3-13.4-16-16.4c-.6-.2-1-.9-.8-1.5.2-.7.8-1,1.5-.9,12.8,3.1,21,10.5,21,18.9s-14.3,20.1-32.5,20.3h0ZM87.9,41.8c.9,2,1.4,4,1.4,6.2s-.7,5-1.9,7.3c1.7-2.2,2.6-4.6,2.6-7.1s-.7-4.3-2.1-6.3Z"/>
    </g>
    <path class="st1" d="M58.4,68.5h0c-18.2-.2-32.5-9.2-32.5-20.3s8.3-15.9,21-18.9c.7-.2,1.3.2,1.5.9.2.7-.2,1.3-.8,1.5-9.7,3-16,9.4-16,16.4s12.1,17.8,26.9,18c.7,0,1.2.6,1.2,1.3,0,.7-.6,1.2-1.2,1.2ZM30.5,41.8c-1.3,2-2.1,4.1-2.1,6.3s.9,4.9,2.6,7.1c-1.2-2.3-1.9-4.7-1.9-7.3s.5-4.2,1.4-6.1Z"/>
    <path class="st1" d="M59.2,68.5c-.3,0-.5,0-.8,0-12.7-.2-23.8-5.8-27.8-14-1-2.1-1.5-4.3-1.5-6.5s0-1.3.1-1.9c1-7.4,7.8-13.8,17.7-16.8,2.4-.6,4.9-1,7.5-1.2.3,0,.7,0,1,.3.3.2.4.6.4.9v5.3c2.3-.1,4.7-.1,7,0v-5.3c0-.4.1-.7.4-.9.3-.2.6-.4,1-.3,2.5.2,5,.6,7.4,1.2,10,3,16.7,9.5,17.7,16.8,0,.6.1,1.3.1,1.9,0,2.2-.5,4.4-1.5,6.5-4,8.2-15.1,13.8-27.8,14-.2,0-.5,0-.8,0ZM59.2,66c.2,0,.5,0,.7,0,11.8-.2,22-5.3,25.6-12.6.8-1.7,1.3-3.6,1.3-5.4s0-1.1-.1-1.6c-.9-6.4-7-12-15.9-14.8-1.8-.4-3.7-.8-5.6-1v5.2c0,.3-.1.7-.4.9-.3.2-.6.4-1,.3-3-.3-6.2-.3-9.3,0-.3,0-.7,0-1-.3-.3-.2-.4-.6-.4-.9v-5.2c-1.9.2-3.8.6-5.7,1-8.9,2.7-15,8.4-15.8,14.7,0,.5-.1,1.1-.1,1.6,0,1.8.4,3.7,1.3,5.4,3.6,7.3,13.8,12.4,25.6,12.6.2,0,.5,0,.7,0Z"/>
    <path class="st1" d="M59.2,72.1c-.6,0-1.2,0-1.8,0-.3,0-.6,0-.9,0-1.7,0-3.5-.2-5.2-.3C23,69.3,1.7,53.9,1.7,36S27.5,0,59.2,0s57.5,16.2,57.5,36-21.3,33.3-49.5,35.7c-1.7.2-3.5.3-5.3.3-.3,0-.6,0-.9,0-.6,0-1.2,0-1.8,0ZM59.2,2.5C28.9,2.5,4.2,17.5,4.2,36s20.3,30.9,47.2,33.2c1.7.1,3.4.2,5.1.3.3,0,.6,0,.9,0,1.2,0,2.4,0,3.5,0,.3,0,.6,0,.9,0,1.7,0,3.5-.1,5.1-.3,26.9-2.3,47.2-16.6,47.2-33.2S89.5,2.5,59.2,2.5ZM63.9,37.2s0,0-.1,0c-3-.3-6.2-.3-9.3,0-.3,0-.7,0-1-.3-.3-.2-.4-.6-.4-.9v-6.6c0-.6.5-1.2,1.1-1.2,3.2-.3,6.5-.3,9.7,0,.6,0,1.1.6,1.1,1.2v6.6c0,.3-.1.7-.4.9-.2.2-.5.3-.8.3ZM59.2,34.5c1.2,0,2.3,0,3.5.1v-4.1c-2.3-.2-4.7-.2-7,0v4.1c1.2,0,2.3-.1,3.5-.1Z"/>
    <path class="st1" d="M59.2,71.6c-.6,0-1.2,0-1.8,0-.3,0-.6,0-.9,0-1.8,0-3.7-.2-5.5-.4-23.9-2.4-41.3-14.7-41.3-29.2S31.9,12.3,59.2,12.3s49.6,13.3,49.6,29.6-17.4,26.8-41.3,29.2c-1.8.2-3.7.3-5.5.4-.3,0-.6,0-.9,0-.6,0-1.2,0-1.8,0ZM59.2,13.8c-26.5,0-48.1,12.6-48.1,28.1s16.8,25.4,40,27.7c1.8.2,3.6.3,5.4.4.3,0,.6,0,.9,0,1.2,0,2.4,0,3.5,0,.3,0,.6,0,.9,0,1.8,0,3.6-.2,5.4-.4,23.2-2.3,40-14,40-27.7s-21.6-28.1-48.1-28.1ZM63.9,36.7s0,0,0,0c-3.1-.3-6.3-.3-9.3,0-.2,0-.4,0-.6-.2s-.2-.3-.2-.6v-6.6c0-.4.3-.7.7-.7,3.1-.3,6.5-.3,9.6,0,.4,0,.7.4.7.7v6.6c0,.2,0,.4-.2.6-.1.1-.3.2-.5.2ZM59.2,35c1.3,0,2.7,0,4,.1v-5.1c-2.6-.2-5.3-.2-8,0v5.1c1.3,0,2.7-.1,4-.1Z"/>
    <path class="st1" d="M59.2,68.4c-8.1,0-16-1.4-22.8-3.9-.6-.2-1.3-.5-1.9-.8-11.3-4.8-18-12.6-18-20.9,0-14.1,19.1-25.6,42.7-25.6s42.7,11.5,42.7,25.6-6.7,16.1-18,20.9c-.6.3-1.2.5-1.9.8-6.8,2.6-14.7,4-22.8,4ZM59.2,18.7c-22.7,0-41.2,10.8-41.2,24.1s6.4,15,17.1,19.5c.6.3,1.2.5,1.8.7,6.6,2.5,14.4,3.9,22.3,3.9s15.6-1.3,22.3-3.9c.6-.2,1.2-.5,1.8-.7,10.7-4.5,17.1-11.8,17.1-19.5,0-13.3-18.5-24.1-41.2-24.1ZM63.9,36.7s0,0,0,0c-3.1-.3-6.3-.3-9.3,0-.2,0-.4,0-.6-.2s-.2-.3-.2-.6v-6.6c0-.4.3-.7.7-.7,3.1-.3,6.5-.3,9.6,0,.4,0,.7.4.7.7v6.6c0,.2,0,.4-.2.6-.1.1-.3.2-.5.2ZM59.2,35c1.3,0,2.7,0,4,.1v-5.1c-2.6-.2-5.3-.2-8,0v5.1c1.3,0,2.7-.1,4-.1Z"/>
    <path class="st1" d="M63.9,36.4s0,0,0,0c-3.1-.3-6.3-.3-9.4,0-.1,0-.3,0-.4-.1-.1,0-.2-.2-.2-.4v-6.6c0-.3.2-.5.5-.5,3.1-.3,6.4-.3,9.5,0,.3,0,.5.2.5.5v6.6c0,.1,0,.3-.2.4,0,0-.2.1-.3.1ZM59.2,35.2c1.4,0,2.8,0,4.2.2v-5.6c-2.8-.2-5.7-.2-8.5,0v5.6c1.4-.1,2.8-.2,4.2-.2Z"/>
    <g>
      <g>
        <path class="st0" d="M90.1,52.4c0,.3,0,.6,0,.9-.3,2.6-1.6,5.1-3.9,7.2-.5.5-1,.9-1.6,1.4-.9.7-1.8,1.3-2.9,1.9-5.6,3.3-13.7,5.3-22.6,5.3s-16.9-2-22.6-5.3c-1-.6-2-1.2-2.9-1.9-.6-.4-1.1-.9-1.6-1.4-2.2-2.1-3.6-4.6-3.9-7.2,0-.3,0-.6,0-.9,0-2.2.8-4.2,2.2-6.1,4-5.4,13-9.4,24-10.3,1.5-.1,3.1-.2,4.7-.2s3.2,0,4.7.2c11,.9,20,4.9,24,10.3,1.4,1.9,2.2,4,2.2,6.2Z"/>
        <path class="st1" d="M59.2,70.3c-8.8,0-17.1-1.9-23.2-5.4-1.1-.6-2.1-1.3-3-2-.6-.5-1.2-1-1.7-1.5-2.5-2.4-3.9-5.2-4.2-8,0-.3,0-.7,0-1,0-2.4.8-4.7,2.4-6.9,4.2-5.8,13.8-9.9,24.9-10.8,3.2-.3,6.5-.3,9.7,0,11.1.9,20.7,5.1,24.9,10.8,1.6,2.2,2.4,4.5,2.4,6.9s0,.7,0,1c-.3,2.8-1.7,5.6-4.2,8-.5.5-1.1,1-1.7,1.4-.9.7-1.9,1.4-3,2-6.1,3.5-14.3,5.4-23.2,5.4ZM59.2,37c-1.5,0-3.1,0-4.6.2-10.4.9-19.3,4.6-23.1,9.8-1.3,1.7-1.9,3.6-1.9,5.4s0,.5,0,.8c.2,2.3,1.4,4.4,3.5,6.4.4.4.9.9,1.5,1.3.8.6,1.7,1.3,2.7,1.8,5.6,3.3,13.6,5.1,21.9,5.1s16.3-1.9,21.9-5.1c1-.6,1.9-1.2,2.7-1.8.5-.4,1-.8,1.5-1.3,2.1-2,3.3-4.2,3.5-6.4,0-.3,0-.5,0-.8,0-1.9-.7-3.7-1.9-5.4-3.8-5.2-12.7-9-23.1-9.8-1.5-.1-3.1-.2-4.6-.2Z"/>
      </g>
      <g>
        <ellipse class="st0" cx="59.2" cy="55.8" rx="27.6" ry="15.3"/>
        <path class="st1" d="M59.2,71.9c-15.7,0-28.4-7.2-28.4-16s12.7-16,28.4-16,28.4,7.2,28.4,16-12.7,16-28.4,16ZM59.2,41.3c-14.8,0-26.9,6.5-26.9,14.5s12.1,14.5,26.9,14.5,26.9-6.5,26.9-14.5-12.1-14.5-26.9-14.5Z"/>
      </g>
      <g>
        <ellipse class="st0" cx="81.1" cy="55.8" rx="2.7" ry="1.5"/>
        <path class="st1" d="M81.1,58.1c-2,0-3.4-1-3.4-2.2s1.5-2.2,3.4-2.2,3.4,1,3.4,2.2-1.5,2.2-3.4,2.2ZM81.1,55.1c-1.2,0-1.9.5-1.9.7s.7.7,1.9.7,1.9-.5,1.9-.7-.7-.7-1.9-.7Z"/>
      </g>
    </g>
  </g>
  <g>
    <path class="st1" d="M87.4,81.5c-.6,0-1.2.2-1.8.8-14.6,14.6-38.4,14.6-53,0-1-1-2.6-1-3.6,0-1,1-1,2.6,0,3.6,16.6,16.6,43.6,16.6,60.2,0,1-1,1-2.6,0-3.6-.4-.4-1-.8-1.8-.8Z"/>
    <path class="st1" d="M101.6,95.8c-.6,0-1.2.2-1.8.8-22.4,22.4-58.8,22.4-81.4,0-1-1-2.6-1-3.6,0-1,1-1,2.6,0,3.6,11.8,11.8,27.6,18.4,44.2,18.4s32.4-6.6,44.2-18.4c1-1,1-2.6,0-3.6-.2-.6-1-.8-1.6-.8Z"/>
    <path class="st1" d="M115.8,110c-.6,0-1.2.2-1.8.8-14.6,14.6-34,22.6-54.8,22.6s-40.2-8-54.8-22.6c-1-1-2.6-1-3.6,0-1,1-1,2.6,0,3.6,15.6,15.4,36.4,24,58.4,24s42.8-8.6,58.4-24.2c1-1,1-2.6,0-3.6-.6-.4-1.2-.6-1.8-.6Z"/>
  </g>
</svg>